<?xml version="1.0" standalone="no"?>
<!DOCTYPE svg PUBLIC "-//W3C//DTD SVG 20010904//EN"
 "http://www.w3.org/TR/2001/REC-SVG-20010904/DTD/svg10.dtd">
<svg version="1.0" xmlns="http://www.w3.org/2000/svg"
 width="900.000000pt" height="800.000000pt" viewBox="0 0 900.000000 800.000000"
 preserveAspectRatio="xMidYMid meet">

<g transform="translate(0.000000,800.000000) scale(0.100000,-0.100000)"
fill="#000000" stroke="none">
<path d="M2410 7583 c-420 -27 -733 -190 -861 -449 l-44 -88 0 -335 c0 -377 2
-394 80 -696 124 -477 330 -1033 612 -1650 129 -281 390 -801 514 -1025 522
-939 985 -1482 1265 -1485 l61 0 -123 -247 c-87 -175 -124 -258 -124 -283 0
-96 193 -197 357 -187 l62 4 53 71 c247 334 557 638 1558 1532 1066 952 1470
1357 1839 1846 456 602 651 1066 651 1549 0 159 -16 246 -64 345 -86 179 -237
268 -512 300 -418 49 -757 -25 -1279 -280 -276 -135 -430 -231 -957 -598 -306
-213 -513 -346 -640 -410 -85 -43 -108 -51 -170 -54 l-73 -4 -73 133 c-41 73
-144 275 -229 448 -177 357 -250 491 -368 671 -280 424 -603 705 -942 819
-156 52 -418 84 -593 73z m340 -473 c118 -14 191 -34 289 -81 116 -55 197
-115 316 -234 148 -148 244 -277 371 -501 182 -322 339 -745 574 -1549 128
-436 157 -505 214 -505 38 0 107 70 366 376 485 570 727 817 1059 1082 385
308 859 558 1216 640 142 33 293 52 411 52 l108 0 70 -42 c56 -33 83 -43 130
-46 l58 -5 -7 -76 c-17 -199 -66 -361 -179 -596 -160 -333 -383 -656 -660
-957 -196 -213 -374 -378 -1625 -1512 -1128 -1023 -1257 -1136 -1286 -1136
-34 0 -45 13 -45 51 0 10 -19 73 -42 140 -39 114 -47 128 -142 252 -638 829
-906 1203 -1150 1605 -330 545 -598 1137 -705 1557 -80 317 -101 501 -101 894
l0 276 60 67 c121 134 303 226 490 248 95 11 116 11 210 0z"/>
</g>
</svg>
